# xmcd
#
# Track frame offsets:
#	150
#	18843
#	38849
#	51446
#	65794
#	80194
#	96664
#	115009
#	131859
#	144548
#	162017
#	174069
#	186872
#	201506
#	214301
#	233991
#	245210
#	257046
#	269916
#	286269
#
# Disc length: 4222 seconds
#
# Revision: 0
# Processed by: cddbd v1.5.2PL0 Copyright (c) Steve Scherf et al.
# Submitted via: dBpowerAMP V4.0
#
DISCID=41107c14
DTITLE=Mazinho Quevedo e Adrielli Duarte - Brasil Caboclo
DYEAR=2012
DGENRE=Country
TTITLE0=Tristezas do Jeca
TTITLE1=Lembrança
TTITLE2=Destinos iguais
TTITLE3=Recado
TTITLE4=Pé de Ipê
TTITLE5=João Carreiro
TTITLE6=Chico Mineiro
TTITLE7=Adeus Morena, adeus
TTITLE8=Adeus, Campina da Serra
TTITLE9=Canoeiro
TTITLE10=Curitibana
TTITLE11=Beijinho doce
TTITLE12=Oi delelê
TTITLE13=Moda do Peão
TTITLE14=Eh São Paulo
TTITLE15=Cana-Verde
TTITLE16=Mineirinha
TTITLE17=Feijão queimado
TTITLE18=Brasil Caboclo
TTITLE19=Tonico e Tinoco
EXTD=Show em homenagem a Tunico e Tinoco cantado por Mazinho Quevedo e Adrielli Duarte
EXTT0=
EXTT1=
EXTT2=
EXTT3=
EXTT4=
EXTT5=
EXTT6=
EXTT7=
EXTT8=
EXTT9=
EXTT10=
EXTT11=
EXTT12=
EXTT13=
EXTT14=
EXTT15=
EXTT16=
EXTT17=
EXTT18=
EXTT19=
PLAYORDER=
